<svg xmlns="http://www.w3.org/2000/svg" version="1.1" xmlns:xlink="http://www.w3.org/1999/xlink" xmlns:svgjs="http://svgjs.dev/svgjs" viewBox="0 0 800 800" opacity="0.75"><defs><filter id="bbburst-blur-1" x="-100%" y="-100%" width="400%" height="400%"><feGaussianBlur in="SourceGraphic" stdDeviation="1"></feGaussianBlur></filter><filter id="bbburst-blur-2" x="-100%" y="-100%" width="400%" height="400%"><feGaussianBlur in="SourceGraphic" stdDeviation="2"></feGaussianBlur></filter><filter id="bbburst-blur-3" x="-100%" y="-100%" width="400%" height="400%"><feGaussianBlur in="SourceGraphic" stdDeviation="4"></feGaussianBlur></filter><filter id="bbburst-blur-4" x="-100%" y="-100%" width="400%" height="400%"><feGaussianBlur in="SourceGraphic" stdDeviation="12"></feGaussianBlur></filter><symbol id="bbburst-shape-1" viewBox="0 0 194 167"><path d="m97 0 96.129 166.5H.871L97 0Z"></path></symbol><symbol id="bbburst-shape-3" viewBox="0 0 131 127"><path d="m66 0 66 63.5L66 127 0 63.5 66 0Z"></path></symbol><symbol id="bbburst-shape-4" viewBox="0 0 149 143"><path d="M71.647 2.781c.898-2.764 4.808-2.764 5.706 0l15.445 47.534a3 3 0 0 0 2.853 2.073h49.98c2.906 0 4.115 3.719 1.764 5.427L106.96 87.193a2.999 2.999 0 0 0-1.09 3.354l15.445 47.534c.898 2.764-2.266 5.062-4.617 3.354l-40.435-29.378a3 3 0 0 0-3.526 0l-40.435 29.378c-2.351 1.708-5.515-.59-4.617-3.354L43.13 90.547a3 3 0 0 0-1.09-3.354L1.605 57.815c-2.35-1.708-1.142-5.427 1.764-5.427h49.98a3 3 0 0 0 2.853-2.073L71.647 2.781Z"></path></symbol><symbol id="bbburst-shape-6" viewBox="0 0 133 116"><path d="M59.7487 10.2513c-13.6683-13.66839-35.8291-13.66839-49.4974 0-13.66839 13.6683-13.66839 35.8291 0 49.4974l49.4974-49.4974ZM66.5 66.5 41.7513 91.2487 66.5 115.997l24.7487-24.7483L66.5 66.5Zm56.249-6.7513c13.668-13.6683 13.668-35.8291 0-49.4974-13.669-13.66839-35.8294-13.66839-49.4977 0l49.4977 49.4974Zm-112.4977 0 31.5 31.5 49.4974-49.4974-31.5-31.5-49.4974 49.4974Zm80.9974 31.5 31.5003-31.5-49.4977-49.4974-31.5 31.5 49.4974 49.4974Z"></path></symbol><symbol id="bbburst-shape-10" viewBox="0 0 145 145"><circle cx="72.5" cy="72.5" r="61.5" fill="none" stroke-width="22"></circle></symbol><symbol id="bbburst-shape-12" viewBox="0 0 170 151"><path d="M69.3728 54.2122 85 10.0031l15.627 44.2091c1.413 3.9958 5.19 6.6672 9.428 6.6673h49.312l-39.149 26.1447c-3.803 2.5401-5.399 7.3367-3.875 11.6488l15.179 42.94-40.9683-27.36c-3.3621-2.245-7.7453-2.245-11.1074 0l-40.9682 27.36 15.1785-42.94c1.5243-4.3121-.0712-9.1087-3.8746-11.6488L10.6333 60.8795h49.3112c4.2381-.0001 8.0159-2.6715 9.4283-6.6673Z" stroke-width="12"></path></symbol></defs><use xlink:href="#bbburst-shape-4" width="26.210747813027655" opacity="0.5073738857913437" transform="matrix(0.7924075013700819,-0.6099920915654756,0.6099920915654756,0.7924075013700819,-74.21596514010088,62.60200062080588)" fill="#ffbd9b" filter="url(#bbburst-blur-2)"></use><use xlink:href="#bbburst-shape-3" width="15.610693686255754" opacity="0.76804224418193" transform="matrix(0.8216599334384619,0.569978029209813,-0.569978029209813,0.8216599334384619,634.785987573148,170.38888721990224)" fill="#ffa6d5" filter="url(#bbburst-blur-1)"></use><use xlink:href="#bbburst-shape-4" width="50.5750689978706" opacity="0.17987196305308262" transform="matrix(1.2366021541175856,-0.18252427901993606,0.18252427901993606,1.2366021541175856,154.46687440239577,250.98434018542957)" fill="#ff5c58" filter="url(#bbburst-blur-3)"></use><use xlink:href="#bbburst-shape-4" width="23.53021206364001" opacity="0.4193694849410101" transform="matrix(0.908126631462516,-0.41869561883132195,0.41869561883132195,0.908126631462516,476.0532832478126,102.09411223263294)" fill="#2c2891" filter="url(#bbburst-blur-2)"></use><use xlink:href="#bbburst-shape-6" width="37.50168592132845" opacity="0.031408144713770514" transform="matrix(1.4655798465093484,0.9563345196664369,-0.9563345196664369,1.4655798465093484,1107.2792661324938,52.57730396651277)" fill="#ff5c58" filter="url(#bbburst-blur-4)"></use><use xlink:href="#bbburst-shape-4" width="31.604238339142736" opacity="0.3419184461790944" transform="matrix(0.993342884402343,-0.11519511277494981,0.11519511277494981,0.993342884402343,591.0488092423985,-149.69189158711177)" fill="#ff5c58" filter="url(#bbburst-blur-2)"></use><use xlink:href="#bbburst-shape-4" width="18.981276545291184" opacity="0.8311879901954741" transform="matrix(0.9994487288623221,0.0331999755344575,-0.0331999755344575,0.9994487288623221,455.5432059053067,-55.689947509212345)" fill="#ffa6d5"></use><use xlink:href="#bbburst-shape-12" width="27.398983716894993" opacity="0.021968055642391238" transform="matrix(1.4875737073893878,-0.9217507608262618,0.9217507608262618,1.4875737073893878,370.4135943571591,-436.31151837994054)" fill="none" stroke="#2c2891" filter="url(#bbburst-blur-4)"></use><use xlink:href="#bbburst-shape-12" width="12.435400578675939" opacity="0.853131258811234" transform="matrix(0.8713756623398884,-0.49061640319267846,0.49061640319267846,0.8713756623398884,150.0534619018757,9.337212340044857)" fill="none" stroke="#ffa6d5"></use><use xlink:href="#bbburst-shape-6" width="41.09766443680162" opacity="0.15932582986296928" transform="matrix(1.2496810627127661,0.028235465235971764,-0.028235465235971764,1.2496810627127661,651.3300735327879,-369.7265780072704)" fill="#ffa6d5" filter="url(#bbburst-blur-3)"></use><use xlink:href="#bbburst-shape-6" width="27.090800313530753" opacity="0.6657637065151143" transform="matrix(0.9787254051367957,0.20517451435257494,-0.20517451435257494,0.9787254051367957,363.93210415869913,-102.07517506322904)" fill="#2c2891" filter="url(#bbburst-blur-1)"></use><use xlink:href="#bbburst-shape-1" width="39.666791903600924" opacity="0.19228475316009885" transform="matrix(1.0155896260877442,0.728750788255461,-0.728750788255461,1.0155896260877442,734.468375993157,337.30677712070616)" fill="#ffbd9b" filter="url(#bbburst-blur-3)"></use><use xlink:href="#bbburst-shape-6" width="19.323589545659175" opacity="0.7394111450740739" transform="matrix(0.9080654745759311,0.4188282391186023,-0.4188282391186023,0.9080654745759311,613.6175038664727,136.368451965727)" fill="#00a19d" filter="url(#bbburst-blur-1)"></use><use xlink:href="#bbburst-shape-6" width="30.953935644049736" opacity="0.30332092534340416" transform="matrix(1.1467726771506355,-0.49740569653027167,0.49740569653027167,1.1467726771506355,299.5002863559267,240.1610300509634)" fill="#ff5c58" filter="url(#bbburst-blur-3)"></use><use xlink:href="#bbburst-shape-3" width="38.445621100573995" opacity="0.32118242636244054" transform="matrix(1.2326612747270453,0.2074757378304651,-0.2074757378304651,1.2326612747270453,644.5183051514334,-339.85052898234204)" fill="#ffa6d5" filter="url(#bbburst-blur-3)"></use><use xlink:href="#bbburst-shape-12" width="11.598669581790666" opacity="0.8691891569733857" transform="matrix(0.9799531850358896,0.19922789748932151,-0.19922789748932151,0.9799531850358896,495.43318523969765,61.671709700867666)" fill="none" stroke="#2c2891"></use><use xlink:href="#bbburst-shape-4" width="13.581882702935598" opacity="0.848852057101703" transform="matrix(0.9891447206377113,-0.1469446209785989,0.1469446209785989,0.9891447206377113,400.43864944860235,-11.358089081134892)" fill="#ff5c58"></use><use xlink:href="#bbburst-shape-10" width="18.61152737409964" opacity="0.7389720426754776" transform="matrix(0.9064286332775627,0.422359009344621,-0.422359009344621,0.9064286332775627,533.5010489238726,147.81375044704413)" fill="none" stroke="#ffbd9b" filter="url(#bbburst-blur-1)"></use><use xlink:href="#bbburst-shape-10" width="17.81441547549597" opacity="0.6350039526701652" transform="matrix(0.9996878274684595,-0.02498494769639251,0.02498494769639251,0.9996878274684595,473.8220431815852,135.9217410432982)" fill="none" stroke="#00a19d" filter="url(#bbburst-blur-1)"></use><use xlink:href="#bbburst-shape-4" width="26.470087901847997" opacity="0.18561073357983926" transform="matrix(1.130769706878969,0.5327850129319054,-0.5327850129319054,1.130769706878969,626.6063781952466,-424.6997216051285)" fill="#00a19d" filter="url(#bbburst-blur-3)"></use><use xlink:href="#bbburst-shape-6" width="33.49655964536399" opacity="0.1917036207496602" transform="matrix(1.1384425683997907,-0.5161865151815647,0.5161865151815647,1.1384425683997907,537.8481191371054,-30.918964416905624)" fill="#ffa6d5" filter="url(#bbburst-blur-3)"></use><use xlink:href="#bbburst-shape-4" width="45.24867727329982" opacity="-0.06204037435693044" transform="matrix(1.5233807635387038,0.8612845344485387,-0.8612845344485387,1.5233807635387038,358.05554339211426,94.53805313895498)" fill="#00a19d" filter="url(#bbburst-blur-4)"></use><use xlink:href="#bbburst-shape-12" width="20.80952205439722" opacity="0.6641272033892509" transform="matrix(0.7858618520494642,-0.6184020937006812,0.6184020937006812,0.7858618520494642,145.5657253157758,-59.0786002902675)" fill="none" stroke="#2c2891" filter="url(#bbburst-blur-1)"></use><use xlink:href="#bbburst-shape-4" width="26.823411040880497" opacity="0.5037803951305989" transform="matrix(0.9223047626583027,0.38646335502581847,-0.38646335502581847,0.9223047626583027,505.0693760329252,-194.2716430850733)" fill="#2c2891" filter="url(#bbburst-blur-2)"></use><use xlink:href="#bbburst-shape-12" width="38.04769324173698" opacity="0.3427959951201265" transform="matrix(0.8922565886851223,-0.45152871442244796,0.45152871442244796,0.8922565886851223,-88.22181148783744,-3.255465547130143)" fill="none" stroke="#ff5c58" filter="url(#bbburst-blur-2)"></use><use xlink:href="#bbburst-shape-6" width="33.96181188483468" opacity="0.21776631484569908" transform="matrix(0.8847534796011242,-0.883012616180371,0.883012616180371,0.8847534796011242,-261.2926678743591,256.0832820198283)" fill="#00a19d" filter="url(#bbburst-blur-3)"></use><use xlink:href="#bbburst-shape-10" width="21.305496907548" opacity="0.6679321179094551" transform="matrix(0.9971441467254435,-0.07552185545381682,0.07552185545381682,0.9971441467254435,210.9884725048592,-17.341485818828403)" fill="none" stroke="#ff5c58" filter="url(#bbburst-blur-1)"></use><use xlink:href="#bbburst-shape-4" width="22.47366874594533" opacity="0.5963045673568225" transform="matrix(0.8159235705874271,0.5781597763247317,-0.5781597763247317,0.8159235705874271,460.7665683774153,-16.38521144309368)" fill="#ff5c58" filter="url(#bbburst-blur-1)"></use><use xlink:href="#bbburst-shape-4" width="29.049498233558552" opacity="0.528526631301008" transform="matrix(0.9273645386844144,-0.37415907364467765,0.37415907364467765,0.9273645386844144,384.9619239307139,186.44688926983315)" fill="#ffa6d5" filter="url(#bbburst-blur-2)"></use><use xlink:href="#bbburst-shape-4" width="35.61575580747228" opacity="0.424585753877043" transform="matrix(0.9960254611439991,-0.08906896627268082,0.08906896627268082,0.9960254611439991,126.0345065457011,138.78879805066987)" fill="#ffbd9b" filter="url(#bbburst-blur-2)"></use><use xlink:href="#bbburst-shape-4" width="12.317364309731639" opacity="0.9577616898177596" transform="matrix(0.7928090401449698,-0.6094701189266064,0.6094701189266064,0.7928090401449698,161.5151534788183,102.69064872150676)" fill="#2c2891"></use><use xlink:href="#bbburst-shape-12" width="28.315205718062025" opacity="0.33523599465907394" transform="matrix(0.9613345413773243,0.27538318676863593,-0.27538318676863593,0.9613345413773243,792.2476118301728,-33.80509018695426)" fill="none" stroke="#ffa6d5" filter="url(#bbburst-blur-2)"></use><use xlink:href="#bbburst-shape-1" width="27.59216593927951" opacity="0.6042230593218849" transform="matrix(0.9813556335530927,0.1922007296906228,-0.1922007296906228,0.9813556335530927,616.9124687027632,-85.34381520753783)" fill="#00a19d" filter="url(#bbburst-blur-1)"></use><use xlink:href="#bbburst-shape-4" width="44.34676417232876" opacity="0.26989340933821293" transform="matrix(1.2499809055957132,0.00690909879221905,-0.00690909879221905,1.2499809055957132,165.82480329076225,-353.41294961394146)" fill="#ff5c58" filter="url(#bbburst-blur-3)"></use><use xlink:href="#bbburst-shape-12" width="42.80409080268501" opacity="0.39878201203813424" transform="matrix(0.973463642173107,0.22884172995122426,-0.22884172995122426,0.973463642173107,477.58539227367373,276.10233000118757)" fill="none" stroke="#ffbd9b" filter="url(#bbburst-blur-2)"></use><use xlink:href="#bbburst-shape-4" width="40.633388081631956" opacity="0.357619110815668" transform="matrix(0.9811686543811563,0.19315297476319415,-0.19315297476319415,0.9811686543811563,175.6247886008409,68.53010462845003)" fill="#00a19d" filter="url(#bbburst-blur-2)"></use><use xlink:href="#bbburst-shape-12" width="33.22522556026112" opacity="0.5731916516190951" transform="matrix(0.8816655072956076,-0.47187491271011534,0.47187491271011534,0.8816655072956076,160.9114793216605,243.84343163552006)" fill="none" stroke="#2c2891" filter="url(#bbburst-blur-1)"></use><use xlink:href="#bbburst-shape-10" width="21.794478786987778" opacity="0.6289497325879987" transform="matrix(0.8686651123536036,0.4953997603750948,-0.4953997603750948,0.8686651123536036,615.2361838783,211.98496717463564)" fill="none" stroke="#ffa6d5" filter="url(#bbburst-blur-1)"></use><use xlink:href="#bbburst-shape-6" width="22.699220873697968" opacity="0.7200619045997302" transform="matrix(0.9919696035604836,-0.12647650221308682,0.12647650221308682,0.9919696035604836,433.054589275435,-78.19103336828607)" fill="#00a19d" filter="url(#bbburst-blur-1)"></use><use xlink:href="#bbburst-shape-4" width="31.438229215001943" opacity="0.47611024901795573" transform="matrix(0.9949052447170765,-0.10081445349975411,0.10081445349975411,0.9949052447170765,519.0125196253493,-154.34321534294284)" fill="#ffa6d5" filter="url(#bbburst-blur-2)"></use><use xlink:href="#bbburst-shape-6" width="34.11320106022253" opacity="0.1989069763591721" transform="matrix(1.2437081708937177,-0.12525967288877604,0.12525967288877604,1.2437081708937177,-30.915175489679143,-69.97470881485901)" fill="#2c2891" filter="url(#bbburst-blur-3)"></use><use xlink:href="#bbburst-shape-3" width="24.99520142862493" opacity="0.43207667758784873" transform="matrix(0.9995926956097365,-0.028538445712066415,0.028538445712066415,0.9995926956097365,598.1709475537089,126.82491137426325)" fill="#ff5c58" filter="url(#bbburst-blur-2)"></use><use xlink:href="#bbburst-shape-3" width="20.261232269339484" opacity="0.7674573993787146" transform="matrix(0.9966212267736381,-0.08213483027442517,0.08213483027442517,0.9966212267736381,296.4575280332089,-83.18175316801432)" fill="#00a19d" filter="url(#bbburst-blur-1)"></use><use xlink:href="#bbburst-shape-6" width="19.26936443769261" opacity="0.673249964907499" transform="matrix(0.966570171369374,0.2564022305265287,-0.2564022305265287,0.966570171369374,417.0780295305211,136.6719369996079)" fill="#ffbd9b" filter="url(#bbburst-blur-1)"></use><use xlink:href="#bbburst-shape-1" width="29.36459284560663" opacity="0.6103253354169165" transform="matrix(0.7620679778593309,0.647497024797327,-0.647497024797327,0.7620679778593309,576.6406031578515,-74.57768822941983)" fill="#00a19d" filter="url(#bbburst-blur-1)"></use><use xlink:href="#bbburst-shape-10" width="41.42658586848679" opacity="-0.08269056631215244" transform="matrix(1.5589964387368913,0.7950032100599911,-0.7950032100599911,1.5589964387368913,342.89509111788993,-586.2632353286509)" fill="none" stroke="#00a19d" filter="url(#bbburst-blur-4)"></use><use xlink:href="#bbburst-shape-6" width="28.852723298372254" opacity="0.4317727693712553" transform="matrix(0.8723382676160449,-0.4889027989822083,0.4889027989822083,0.8723382676160449,-29.048769483656116,-70.66642066918013)" fill="#ffa6d5" filter="url(#bbburst-blur-2)"></use><use xlink:href="#bbburst-shape-12" width="45.730905375808945" opacity="0.1493176511105061" transform="matrix(1.0194145552711766,-0.7233906029948616,0.7233906029948616,1.0194145552711766,334.10149281818735,301.29527982451685)" fill="none" stroke="#ffa6d5" filter="url(#bbburst-blur-3)"></use><use xlink:href="#bbburst-shape-4" width="38.98392490474099" opacity="-0.08117254810231023" transform="matrix(1.6258339477955581,0.647428740631361,-0.647428740631361,1.6258339477955581,960.8497875221083,-617.0504324216369)" fill="#ff5c58" filter="url(#bbburst-blur-4)"></use><use xlink:href="#bbburst-shape-4" width="23.35740625810042" opacity="0.759557276619988" transform="matrix(0.7560078657642251,0.6545625309339219,-0.6545625309339219,0.7560078657642251,555.426172167507,43.17152721721686)" fill="#ffbd9b" filter="url(#bbburst-blur-1)"></use><use xlink:href="#bbburst-shape-3" width="23.0429200700741" opacity="0.5987572110536977" transform="matrix(0.941643572408999,0.3366116197352941,-0.3366116197352941,0.941643572408999,703.6560211321862,34.33628868878958)" fill="#00a19d" filter="url(#bbburst-blur-1)"></use><use xlink:href="#bbburst-shape-12" width="23.4703280563785" opacity="0.6358272545544679" transform="matrix(0.8640377359253186,0.5034270462510425,-0.5034270462510425,0.8640377359253186,751.0358586516961,12.036766663309038)" fill="none" stroke="#ffa6d5" filter="url(#bbburst-blur-1)"></use><use xlink:href="#bbburst-shape-6" width="28.74137321292297" opacity="0.032076811699656926" transform="matrix(1.4889461628555278,-0.919532122395841,0.919532122395841,1.4889461628555278,-233.64319699239857,178.14921711771456)" fill="#ffa6d5" filter="url(#bbburst-blur-4)"></use><use xlink:href="#bbburst-shape-10" width="17.800600086614924" opacity="0.8656601059706356" transform="matrix(0.8267677525237308,-0.5625434057802642,0.5625434057802642,0.8267677525237308,153.49019455907847,133.07717077663136)" fill="none" stroke="#2c2891"></use><use xlink:href="#bbburst-shape-6" width="33.97521313106299" opacity="0.17798567678567256" transform="matrix(1.2358756319723516,-0.18738042132768443,0.18738042132768443,1.2358756319723516,54.39838913404972,181.78607455732703)" fill="#ffa6d5" filter="url(#bbburst-blur-3)"></use><use xlink:href="#bbburst-shape-12" width="38.23138651457896" opacity="-0.08490014645725186" transform="matrix(1.6764687866699157,-0.5019486102396349,0.5019486102396349,1.6764687866699157,500.96644260840526,95.1263970698028)" fill="none" stroke="#ff5c58" filter="url(#bbburst-blur-4)"></use><use xlink:href="#bbburst-shape-10" width="40.03137758679302" opacity="0.3070151375649799" transform="matrix(1.1110448445470282,0.5727821168694689,-0.5727821168694689,1.1110448445470282,533.7610660519172,-359.0336873620559)" fill="none" stroke="#ffbd9b" filter="url(#bbburst-blur-3)"></use><use xlink:href="#bbburst-shape-3" width="33.159320131483014" opacity="0.2573652386497649" transform="matrix(1.2333360779281857,-0.20342595429472704,0.20342595429472704,1.2333360779281857,15.333972973111045,-268.1652711289755)" fill="#ff5c58" filter="url(#bbburst-blur-3)"></use><use xlink:href="#bbburst-shape-6" width="14.832839364841561" opacity="0.7970046492386483" transform="matrix(0.9286530476801588,-0.37094948043413234,0.37094948043413234,0.9286530476801588,258.3898204615378,-59.0312228403335)" fill="#ffa6d5"></use><use xlink:href="#bbburst-shape-10" width="15.815829818802662" opacity="0.8917397241034739" transform="matrix(0.9988590754963895,0.04775507615424798,-0.04775507615424798,0.9988590754963895,425.0363797083732,-46.63315571441751)" fill="none" stroke="#ff5c58"></use><use xlink:href="#bbburst-shape-6" width="19.795344286905078" opacity="0.8179033580846335" transform="matrix(0.8440026569628086,-0.5363389926527062,0.5363389926527062,0.8440026569628086,235.2332811233287,125.47026257809677)" fill="#ffa6d5"></use><use xlink:href="#bbburst-shape-4" width="15.645456208152737" opacity="0.7431720726549804" transform="matrix(0.8184396214721222,0.5745925391132131,-0.5745925391132131,0.8184396214721222,738.9489284888832,64.74082272371032)" fill="#ff5c58" filter="url(#bbburst-blur-1)"></use><use xlink:href="#bbburst-shape-6" width="16.205774213054895" opacity="0.7345023497706852" transform="matrix(0.8359964839402433,-0.5487347982764994,0.5487347982764994,0.8359964839402433,78.09488156731248,141.65467066578054)" fill="#ff5c58" filter="url(#bbburst-blur-1)"></use><use xlink:href="#bbburst-shape-10" width="14.141245129284485" opacity="0.9280726606545422" transform="matrix(0.9998666491850658,0.01633045766133177,-0.01633045766133177,0.9998666491850658,427.39256978181356,-16.419232114447652)" fill="none" stroke="#00a19d"></use><use xlink:href="#bbburst-shape-6" width="20.971530121851853" opacity="0.58244446916041" transform="matrix(0.7449670847364938,0.6671012236978806,-0.6671012236978806,0.7449670847364938,829.5123110428049,174.02319010806514)" fill="#ffa6d5" filter="url(#bbburst-blur-1)"></use><use xlink:href="#bbburst-shape-4" width="40.627221463983716" opacity="0.1636772058531426" transform="matrix(1.2177500892711757,-0.28210763917349657,0.28210763917349657,1.2177500892711757,599.0739621742268,-249.5708945399695)" fill="#ffa6d5" filter="url(#bbburst-blur-3)"></use><use xlink:href="#bbburst-shape-10" width="26.83880878434621" opacity="0.11839902806038971" transform="matrix(1.2415495357718913,0.14510255071707345,-0.14510255071707345,1.2415495357718913,78.49948830542004,61.75990050887731)" fill="none" stroke="#ffa6d5" filter="url(#bbburst-blur-3)"></use><use xlink:href="#bbburst-shape-6" width="19.557042734686412" opacity="0.6960282022730668" transform="matrix(0.8817074557183925,-0.4717965266198968,0.4717965266198968,0.8817074557183925,334.5092992265402,88.35123455825277)" fill="#00a19d" filter="url(#bbburst-blur-1)"></use><use xlink:href="#bbburst-shape-12" width="14.240939344004655" opacity="0.9450311256138746" transform="matrix(0.8506017642198753,0.5258104589165525,-0.5258104589165525,0.8506017642198753,585.2870206086261,71.83929885135603)" fill="none" stroke="#2c2891"></use><use xlink:href="#bbburst-shape-4" width="33.10045883008465" opacity="0.385349225947365" transform="matrix(0.9667658466175197,0.2556634463780661,-0.2556634463780661,0.9667658466175197,642.3831094046449,237.4077989717441)" fill="#ffa6d5" filter="url(#bbburst-blur-2)"></use><use xlink:href="#bbburst-shape-4" width="14.69214171353169" opacity="0.7548908250890464" transform="matrix(0.9402513755980043,-0.3404810577492684,0.3404810577492684,0.9402513755980043,359.031265202158,-15.253539788043042)" fill="#ffa6d5" filter="url(#bbburst-blur-1)"></use><use xlink:href="#bbburst-shape-1" width="25.41605985580661" opacity="0.4971530734398236" transform="matrix(0.9788370168871462,-0.20464137991000886,0.20464137991000886,0.9788370168871462,153.1289422715065,-156.00047797761135)" fill="#2c2891" filter="url(#bbburst-blur-2)"></use><use xlink:href="#bbburst-shape-10" width="33.02061871166926" opacity="0.23676044269526664" transform="matrix(0.9964954245496558,0.7546501632224044,-0.7546501632224044,0.9964954245496558,978.6638094479212,167.72731825432032)" fill="none" stroke="#ffa6d5" filter="url(#bbburst-blur-3)"></use><use xlink:href="#bbburst-shape-10" width="31.86520390066427" opacity="0.371173203745941" transform="matrix(0.9922987301239473,0.1238677932087334,-0.1238677932087334,0.9922987301239473,450.2956680849736,-281.3802021447839)" fill="none" stroke="#ff5c58" filter="url(#bbburst-blur-2)"></use><use xlink:href="#bbburst-shape-12" width="18.10690202910697" opacity="0.813625338428813" transform="matrix(0.8555431391917069,0.5177315298318228,-0.5177315298318228,0.8555431391917069,545.8306383229215,117.62842600120877)" fill="none" stroke="#00a19d"></use><use xlink:href="#bbburst-shape-10" width="40.12752353486365" opacity="0.07424714128344923" transform="matrix(1.4059245469715975,1.0420538221333426,-1.0420538221333426,1.4059245469715975,556.5608646626513,-529.2510710164256)" fill="none" stroke="#ff5c58" filter="url(#bbburst-blur-4)"></use><use xlink:href="#bbburst-shape-6" width="34.51674742652774" opacity="0.17094720574487554" transform="matrix(1.1773708061891057,-0.41987853569051986,0.41987853569051986,1.1773708061891057,574.1829039137124,-152.08354032995197)" fill="#ffa6d5" filter="url(#bbburst-blur-3)"></use><use xlink:href="#bbburst-shape-6" width="35.67085956465229" opacity="0.15606219940990695" transform="matrix(1.1335480950662342,-0.5268479061092602,0.5268479061092602,1.1335480950662342,52.16043282041355,-405.3601219880131)" fill="#ffbd9b" filter="url(#bbburst-blur-3)"></use><use xlink:href="#bbburst-shape-1" width="30.01188088661815" opacity="0.5347820389188906" transform="matrix(0.9490633373703222,0.3150853561489424,-0.3150853561489424,0.9490633373703222,389.32925196973537,185.4841046756697)" fill="#ffa6d5" filter="url(#bbburst-blur-2)"></use><use xlink:href="#bbburst-shape-3" width="31.81438860218712" opacity="0.09589477278936931" transform="matrix(1.579968525174634,-0.7524622644741013,0.7524622644741013,1.579968525174634,260.85674441730936,141.3123889771333)" fill="#ff5c58" filter="url(#bbburst-blur-4)"></use><use xlink:href="#bbburst-shape-4" width="16.221966111630785" opacity="0.8026769073384217" transform="matrix(0.9732179002629944,-0.22988457670685183,0.22988457670685183,0.9732179002629944,211.57966577760544,18.82851712514247)" fill="#ff5c58"></use><use xlink:href="#bbburst-shape-1" width="30.367916337928555" opacity="0.5490984638375771" transform="matrix(0.9857940403415902,0.16795865570729931,-0.16795865570729931,0.9857940403415902,254.323941951275,48.030059607986914)" fill="#ffa6d5" filter="url(#bbburst-blur-2)"></use><use xlink:href="#bbburst-shape-1" width="12.434564737405843" opacity="0.8722854848957755" transform="matrix(0.739925541335003,-0.6726887789164486,0.6726887789164486,0.739925541335003,74.85366553756347,133.771082847605)" fill="#2c2891"></use><use xlink:href="#bbburst-shape-10" width="11.559170918439222" opacity="0.9484010516112287" transform="matrix(0.7298798970149238,-0.6835754061795116,0.6835754061795116,0.7298798970149238,111.29775519924232,91.5791658628566)" fill="none" stroke="#2c2891"></use><use xlink:href="#bbburst-shape-12" width="32.81832767605129" opacity="0.3227388334996093" transform="matrix(1.136630938381994,-0.5201635415067726,0.5201635415067726,1.136630938381994,397.161275152557,160.5716110717185)" fill="none" stroke="#ffbd9b" filter="url(#bbburst-blur-3)"></use><use xlink:href="#bbburst-shape-10" width="15.466997967437289" opacity="0.809866071781049" transform="matrix(0.9998674705755386,-0.016280088601553524,0.016280088601553524,0.9998674705755386,467.7810980491524,24.517339936352414)" fill="none" stroke="#00a19d"></use><use xlink:href="#bbburst-shape-12" width="29.298174402549087" opacity="0.4986943073113933" transform="matrix(0.97194120030896,-0.23522394253557197,0.23522394253557197,0.97194120030896,364.2215622295053,228.21677882037585)" fill="none" stroke="#2c2891" filter="url(#bbburst-blur-2)"></use><use xlink:href="#bbburst-shape-3" width="16.295207499013806" opacity="0.8498261889264664" transform="matrix(0.7154329284314418,-0.6986814187567976,0.6986814187567976,0.7154329284314418,97.01710137402512,54.326678933466496)" fill="#ff5c58"></use><use xlink:href="#bbburst-shape-10" width="22.86523624371322" opacity="0.4745935229817245" transform="matrix(0.9921901651996112,0.12473442219839746,-0.12473442219839746,0.9921901651996112,674.982730915076,1.1478123491126553)" fill="none" stroke="#ff5c58" filter="url(#bbburst-blur-2)"></use><use xlink:href="#bbburst-shape-6" width="39.1689714370808" opacity="0.1621878088480172" transform="matrix(1.2253414829456304,-0.24705920378039675,0.24705920378039675,1.2253414829456304,-83.70847632330026,-194.38969447313212)" fill="#2c2891" filter="url(#bbburst-blur-3)"></use><use xlink:href="#bbburst-shape-6" width="13.509226326497707" opacity="0.88557051740437" transform="matrix(0.9934528590588234,0.1142427977066802,-0.1142427977066802,0.9934528590588234,389.1167415706993,-10.980023852093325)" fill="#2c2891"></use><use xlink:href="#bbburst-shape-4" width="36.801905672800736" opacity="0.479194755276076" transform="matrix(0.9969893436203401,0.07753869168024026,-0.07753869168024026,0.9969893436203401,634.3483018340484,-76.23683154935014)" fill="#ffa6d5" filter="url(#bbburst-blur-2)"></use><use xlink:href="#bbburst-shape-12" width="41.60053594017677" opacity="0.09429415282418319" transform="matrix(1.4792568247829343,-0.9350397030784903,0.9350397030784903,1.4792568247829343,191.91620778351376,-529.2857693438044)" fill="none" stroke="#00a19d" filter="url(#bbburst-blur-4)"></use><use xlink:href="#bbburst-shape-12" width="43.95512749742616" opacity="0.36175828024588863" transform="matrix(0.8016379049915965,-0.5978098939300721,0.5978098939300721,0.8016379049915965,-34.21151092274633,318.27414123376667)" fill="none" stroke="#ff5c58" filter="url(#bbburst-blur-2)"></use><use xlink:href="#bbburst-shape-4" width="45.26807581129727" opacity="0.06194144931839929" transform="matrix(1.364804232232521,1.095358118461811,-1.095358118461811,1.364804232232521,460.01216405759004,-410.7545836651665)" fill="#ff5c58" filter="url(#bbburst-blur-4)"></use><use xlink:href="#bbburst-shape-3" width="21.607230339651128" opacity="0.6996650059312151" transform="matrix(0.9923677459418899,0.12331365218098356,-0.12331365218098356,0.9923677459418899,307.8349163266604,36.15591073719412)" fill="#ff5c58" filter="url(#bbburst-blur-1)"></use><use xlink:href="#bbburst-shape-1" width="25.717334571625113" opacity="0.2679176838202423" transform="matrix(1.2470621110261124,0.08565098506786913,-0.08565098506786913,1.2470621110261124,737.5957590163669,-19.081542413177942)" fill="#ffbd9b" filter="url(#bbburst-blur-3)"></use><use xlink:href="#bbburst-shape-4" width="33.64273351498104" opacity="0.2612108499299124" transform="matrix(1.0026955197328018,0.746392453544224,-0.746392453544224,1.0026955197328018,792.1890629668607,-327.149392741061)" fill="#00a19d" filter="url(#bbburst-blur-3)"></use><use xlink:href="#bbburst-shape-10" width="32.50401745727557" opacity="0.5312212747531233" transform="matrix(0.9297133592987876,0.36828395232668426,-0.36828395232668426,0.9297133592987876,566.0120893068305,-186.09434216642936)" fill="none" stroke="#ffbd9b" filter="url(#bbburst-blur-2)"></use><use xlink:href="#bbburst-shape-1" width="37.12224212046681" opacity="0.4157470811950028" transform="matrix(0.7402121660425253,-0.6723733704145584,0.6723733704145584,0.7402121660425253,-1.1194232262722608,-118.28242136397932)" fill="#ffbd9b" filter="url(#bbburst-blur-2)"></use><use xlink:href="#bbburst-shape-12" width="23.734437208404174" opacity="0.12150581818371742" transform="matrix(1.244427470724265,0.11789940672797546,-0.11789940672797546,1.244427470724265,799.9932181789418,46.21622979790186)" fill="none" stroke="#ffa6d5" filter="url(#bbburst-blur-3)"></use><use xlink:href="#bbburst-shape-4" width="27.241839880864838" opacity="0.4606144903067294" transform="matrix(0.9740659196716669,-0.22626441199223035,0.22626441199223035,0.9740659196716669,400.66358935349024,-205.6293527672301)" fill="#ffa6d5" filter="url(#bbburst-blur-2)"></use><use xlink:href="#bbburst-shape-6" width="22.964625730677522" opacity="0.7103560041852368" transform="matrix(0.9995407845748898,0.030302144666898248,-0.030302144666898248,0.9995407845748898,505.97361559679763,76.6090342858883)" fill="#00a19d" filter="url(#bbburst-blur-1)"></use><use xlink:href="#bbburst-shape-4" width="24.79245784546965" opacity="0.596830807733314" transform="matrix(0.9355292984605713,0.3532491071777413,-0.3532491071777413,0.9355292984605713,379.4935940336817,123.19036989376957)" fill="#00a19d" filter="url(#bbburst-blur-1)"></use><use xlink:href="#bbburst-shape-1" width="14.632648617931949" opacity="0.7383093703477295" transform="matrix(0.8768479546945998,0.4807677863042584,-0.4807677863042584,0.8768479546945998,556.5148371549957,-68.28010936870777)" fill="#00a19d" filter="url(#bbburst-blur-1)"></use><use xlink:href="#bbburst-shape-10" width="23.227375935158364" opacity="0.6330512593443915" transform="matrix(0.9999496945091698,-0.010030376414573333,0.010030376414573333,0.9999496945091698,446.74408606444456,-152.75867267121376)" fill="none" stroke="#00a19d" filter="url(#bbburst-blur-1)"></use><use xlink:href="#bbburst-shape-1" width="14.898082308121797" opacity="0.7425613449287835" transform="matrix(0.9449023512339484,-0.32735232797790814,0.32735232797790814,0.9449023512339484,313.75832001535105,-79.15983174757355)" fill="#00a19d" filter="url(#bbburst-blur-1)"></use><use xlink:href="#bbburst-shape-4" width="12.936626320695188" opacity="0.8961933245194941" transform="matrix(0.9985281963695269,0.05423505374773329,-0.05423505374773329,0.9985281963695269,458.623903171336,17.554898070558068)" fill="#00a19d"></use><use xlink:href="#bbburst-shape-3" width="23.15139145450333" opacity="0.6014066927692877" transform="matrix(0.9831464488925424,0.18281974737424667,-0.18281974737424667,0.9831464488925424,575.2832374196378,-134.17994483100517)" fill="#00a19d" filter="url(#bbburst-blur-1)"></use><use xlink:href="#bbburst-shape-10" width="35.14226089341139" opacity="0.40055261508558127" transform="matrix(0.8621044939654828,0.50673054129835,-0.50673054129835,0.8621044939654828,500.41866819668587,301.54820326984026)" fill="none" stroke="#2c2891" filter="url(#bbburst-blur-2)"></use><use xlink:href="#bbburst-shape-4" width="39.04318846001335" opacity="0.20713538089477912" transform="matrix(1.2316996469602732,-0.21311025239987472,0.21311025239987472,1.2316996469602732,248.40911941804274,265.79564476439157)" fill="#00a19d" filter="url(#bbburst-blur-3)"></use></svg>