<svg xmlns="http://www.w3.org/2000/svg" version="1.1" xmlns:xlink="http://www.w3.org/1999/xlink" xmlns:svgjs="http://svgjs.dev/svgjs" viewBox="0 0 800 800"><defs><filter id="llleaves-blur-2" x="-100%" y="-100%" width="400%" height="400%"><feGaussianBlur in="SourceGraphic" stdDeviation="2"></feGaussianBlur></filter><filter id="llleaves-blur-3" x="-100%" y="-100%" width="400%" height="400%"><feGaussianBlur in="SourceGraphic" stdDeviation="4"></feGaussianBlur></filter><filter id="llleaves-blur-4" x="-100%" y="-100%" width="400%" height="400%"><feGaussianBlur in="SourceGraphic" stdDeviation="12"></feGaussianBlur></filter></defs><g fill="#36ae7c"><path d="M550 656H600C628 656 650 678 650 706H600C572 706 550 684 550 656Z " transform="matrix(-0.38482913383120904,-0.08884480602002846,0.08884480602002846,-0.38482913383120904,770.394167399086,996.3755237510704)" filter="url(#llleaves-blur-2)" opacity="0.61"></path><path d="M641 373H691C719 373 741 395 741 423H691C663 423 641 401 641 373Z " transform="matrix(-0.3335544049121148,0.1019778155173189,-0.1019778155173189,-0.3335544049121148,962.0732643701642,460.2879826325544)" filter="url(#llleaves-blur-2)" opacity="0.53"></path><path d="M242 465H292C320 465 342 487 342 515H292C264 515 242 493 242 465Z " transform="matrix(0.054502204952431535,-0.5185538414761711,0.5185538414761711,0.054502204952431535,21.99397383056612,614.7116412843505)" opacity="0.80"></path><path d="M430 108H480C508 108 530 130 530 158H480C452 158 430 136 430 108Z " transform="matrix(-0.1500044432661877,-0.4616662055434849,0.4616662055434849,-0.1500044432661877,490.6005274304866,374.55036961527566)" opacity="0.75"></path><path d="M380 19H430C458 19 480 41 480 69H430C402 69 380 47 380 19Z " transform="matrix(0.045321680167219505,-0.5180291747603422,0.5180291747603422,0.045321680167219505,387.71839383864057,264.75839121958944)" opacity="0.80"></path><path d="M-6 729H44C72 729 94 751 94 779H44C16 779 -6 757 -6 729Z " transform="matrix(-0.383139622234286,-0.1171375377995018,0.1171375377995018,-0.383139622234286,-27.463560122515773,1048.0413268278296)" opacity="0.61"></path><path d="M367 443H417C445 443 467 465 467 493H417C389 493 367 471 367 443Z " transform="matrix(-0.1109507978849422,-0.4805807042712041,0.4805807042712041,-0.1109507978849422,238.3547131190974,720.3271270912451)" opacity="0.76"></path><path d="M491 18H541C569 18 591 40 591 68H541C513 68 491 46 491 18Z " transform="matrix(-0.2954572039560382,-0.33988463311688033,0.33988463311688033,-0.2954572039560382,686.2273081161909,239.58224628634193)" opacity="0.69"></path><path d="M204 107H254C282 107 304 129 304 157H254C226 157 204 135 204 107Z " transform="matrix(0.11976282415832067,-0.5187497834779018,0.5187497834779018,0.11976282415832067,155.10527124470352,247.95375221448873)" opacity="0.82"></path><path d="M-6 360H44C72 360 94 382 94 410H44C16 410 -6 388 -6 360Z " transform="matrix(-0.383139622234286,-0.1171375377995018,0.1171375377995018,-0.383139622234286,15.76019132550039,537.6628062233781)" opacity="0.61"></path><path d="M76 22H126C154 22 176 44 176 72H126C98 72 76 50 76 22Z " transform="matrix(-0.2075557781713961,-0.4255524093267933,0.4255524093267933,-0.2075557781713961,132.15106481123664,110.37472514923157)" opacity="0.73"></path><path d="M373 189H423C451 189 473 211 473 239H423C395 239 373 217 373 189Z " transform="matrix(-0.1109507978849422,-0.4805807042712041,0.4805807042712041,-0.1109507978849422,367.08791679129286,441.02910865409694)" opacity="0.76"></path><path d="M269 19H319C347 19 369 41 369 69H319C291 69 269 47 269 19Z " transform="matrix(0.22310122435079288,-0.5010935541949351,0.5010935541949351,0.22310122435079288,225.78259304751992,194.03238991674942)" opacity="0.84"></path><path d="M329 523H379C407 523 429 545 429 573H379C351 573 329 551 329 523Z " transform="matrix(-9.402936840462992e-17,-0.5118720405485991,0.5118720405485991,-9.402936840462992e-17,98.49412177936773,741.9995033679191)" opacity="0.79"></path><path d="M604 27H654C682 27 704 49 704 77H654C626 77 604 55 604 27Z " transform="matrix(-0.38391315617166044,-0.06769424768200633,0.06769424768200633,-0.38391315617166044,901.5591032568014,116.23552210495848)" filter="url(#llleaves-blur-2)" opacity="0.60"></path><path d="M449 641H499C527 641 549 663 549 691H499C471 691 449 669 449 641Z " transform="matrix(-0.2687396321336266,-0.36988837098279764,0.36988837098279764,-0.2687396321336266,386.75542136013644,1029.5548921214113)" opacity="0.70"></path><path d="M483 463H533C561 463 583 485 583 513H533C505 513 483 491 483 463Z " transform="matrix(-0.3343480478438294,-0.28055132363060076,0.28055132363060076,-0.3343480478438294,574.2984635690278,800.6957028428988)" opacity="0.67"></path><path d="M707 567H757C785 567 807 589 807 617H757C729 617 707 595 707 567Z " transform="matrix(-0.308771382503507,0.13747387669293565,-0.13747387669293565,-0.308771382503507,1072.1244715573728,670.7249337855238)" filter="url(#llleaves-blur-2)" opacity="0.52"></path><path d="M127 643H177C205 643 227 665 227 693H177C149 693 127 671 127 643Z " transform="matrix(-0.13450559406716883,-0.46907675152724715,0.46907675152724715,-0.13450559406716883,-112.53577987031218,840.8763218571916)" opacity="0.75"></path><path d="M604 261H654C682 261 704 283 704 311H654C626 311 604 289 604 261Z " transform="matrix(-0.3563318051920309,0.05643741353517155,-0.05643741353517155,-0.3563318051920309,903.1821008666473,351.0008278329186)" filter="url(#llleaves-blur-2)" opacity="0.55"></path><path d="M190 296H240C268 296 290 318 290 346H240C212 346 190 324 190 296Z " transform="matrix(0.008960070467819556,-0.5133220933102943,0.5133220933102943,0.008960070467819556,73.07319113511883,441.32111977430054)" opacity="0.79"></path><path d="M544 385H594C622 385 644 407 644 435H594C566 435 544 413 544 385Z " transform="matrix(-0.38482913383120904,-0.08884480602002846,0.08884480602002846,-0.38482913383120904,786.1621350275265,620.5537596466926)" filter="url(#llleaves-blur-2)" opacity="0.61"></path><path d="M396 728H446C474 728 496 750 496 778H446C418 778 396 756 396 728Z " transform="matrix(-0.14993876432956524,-0.4614640665615028,0.4614640665615028,-0.14993876432956524,165.39024677017443,1071.716863226593)" opacity="0.75"></path><path d="M424 370H474C502 370 524 392 524 420H474C446 420 424 398 424 370Z " transform="matrix(-0.23354371463331544,-0.404509579533269,0.404509579533269,-0.23354371463331544,424.91843682055026,678.9873079789292)" opacity="0.72"></path><path d="M344 632H394C422 632 444 654 444 682H394C366 682 344 660 344 632Z " transform="matrix(-0.03534096795425316,-0.5053993879029237,0.5053993879029237,-0.03534096795425316,75.87694352175487,879.3463747796962)" opacity="0.78"></path><path d="M420 545H470C498 545 520 567 520 595H470C442 595 420 573 420 545Z " transform="matrix(-0.23354371463331544,-0.404509579533269,0.404509579533269,-0.23354371463331544,349.1950855436949,893.2394197216261)" opacity="0.72"></path><path d="M702 42H752C780 42 802 64 802 92H752C724 92 702 70 702 42Z " transform="matrix(-0.3769541220419066,-0.006579758675200615,0.006579758675200615,-0.3769541220419066,1035.0286559442754,97.20390470055861)" filter="url(#llleaves-blur-2)" opacity="0.58"></path><path d="M494 200H544C572 200 594 222 594 250H544C516 250 494 228 494 200Z " transform="matrix(-0.3571657499118251,-0.23194615002282232,0.23194615002282232,-0.3571657499118251,686.1102841968979,431.540999342576)" opacity="0.65"></path><path d="M85 236H135C163 236 185 258 185 286H135C107 286 85 264 85 236Z " transform="matrix(-0.2205760254472769,-0.4148431686795997,0.4148431686795997,-0.2205760254472769,56.50369641000687,374.57417041348526)" opacity="0.72"></path><path d="M172 548H222C250 548 272 570 272 598H222C194 598 172 576 172 548Z " transform="matrix(-0.026615151885145415,-0.5078473510851023,0.5078473510851023,-0.026615151885145415,-63.08796845326134,700.9925939710811)" opacity="0.78"></path></g><g fill="none" stroke-width="3" stroke="#36ae7c"><path d="M9 451H59C87 451 109 473 109 501H59C31 501 9 479 9 451Z " transform="matrix(-0.3745048175998166,-0.17463446446273528,0.17463446446273528,-0.3745048175998166,-2.030220845872819,664.5677265808141)" opacity="0.63"></path><path d="M94 122H144C172 122 194 144 194 172H144C116 172 94 150 94 122Z " transform="matrix(-0.18645181813626013,-0.43925295686844845,0.43925295686844845,-0.18645181813626013,106.27887715195953,237.66084305508684)" opacity="0.73"></path><path d="M87 727H137C165 727 187 749 187 777H137C109 777 87 755 87 727Z " transform="matrix(-0.2205760254472769,-0.4148431686795997,0.4148431686795997,-0.2205760254472769,-144.74314736078207,974.7066852454573)" opacity="0.72"></path><path d="M629 609H679C707 609 729 631 729 659H679C651 659 629 637 629 609Z " transform="matrix(-0.34375720776190016,0.0857082980742229,-0.0857082980742229,-0.34375720776190016,966.7502050493874,793.7461353286474)" filter="url(#llleaves-blur-2)" opacity="0.54"></path><path d="M295 728H345C373 728 395 750 395 778H345C317 778 295 756 295 728Z " transform="matrix(0.0362114489602854,-0.5178478462530003,0.5178478462530003,0.0362114489602854,-57.43237811980765,904.3902858901902)" opacity="0.80"></path><path d="M-2 151H48C76 151 98 173 98 201H48C20 201 -2 179 -2 151Z " transform="matrix(-0.38381720903143346,-0.11734469687274109,0.11734469687274109,-0.38381720903143346,45.770559383906374,249.18437423942385)" opacity="0.62"></path><path d="M707 445H757C785 445 807 467 807 495H757C729 495 707 473 707 445Z " transform="matrix(-0.308771382503507,0.13747387669293565,-0.13747387669293565,-0.308771382503507,1055.3526586008345,511.05482512009604)" filter="url(#llleaves-blur-2)" opacity="0.52"></path><path d="M113 461H163C191 461 213 483 213 511H163C135 511 113 489 113 461Z " transform="matrix(-0.1795525096796432,-0.4444080562059868,0.4444080562059868,-0.1795525096796432,-23.715256238327726,645.7010328658824)" opacity="0.74"></path><path d="M296 369H346C374 369 396 391 396 419H346C318 419 296 397 296 369Z " transform="matrix(0.0362114489602854,-0.5178478462530003,0.5178478462530003,0.0362114489602854,129.43878723605914,558.9080439131857)" opacity="0.80"></path><path d="M704 173H754C782 173 804 195 804 223H754C726 223 704 201 704 173Z " transform="matrix(-0.308771382503507,0.13747387669293565,-0.13747387669293565,-0.308771382503507,1014.0334499928455,155.4814307092209)" filter="url(#llleaves-blur-2)" opacity="0.52"></path><path d="M76 559H126C154 559 176 581 176 609H126C98 609 76 587 76 559Z " transform="matrix(-0.2636398801835357,-0.3765167693818461,0.3765167693818461,-0.2636398801835357,-60.667168415872624,785.4068029692975)" opacity="0.71"></path><path d="M188 732H238C266 732 288 754 288 782H238C210 782 188 760 188 732Z " transform="matrix(0.008960070467819556,-0.5133220933102943,0.5133220933102943,0.008960070467819556,-152.71732140723384,872.3878848637106)" opacity="0.79"></path><path d="M526 559H576C604 559 626 581 626 609H576C548 609 526 587 526 559Z " transform="matrix(-0.3805520797958883,-0.13850962963379995,0.13850962963379995,-0.3805520797958883,714.3083742562925,886.0239612698674)" opacity="0.62"></path><path d="M232 650H282C310 650 332 672 332 700H282C254 700 232 678 232 650Z " transform="matrix(0.04530912286053475,-0.5178856440881535,0.5178856440881535,0.04530912286053475,-80.34998240617443,790.4600937019984)" opacity="0.80"></path><path d="M170 200H220C248 200 270 222 270 250H220C192 250 170 228 170 200Z " transform="matrix(-0.026615151885145415,-0.5078473510851023,0.5078473510851023,-0.026615151885145415,111.58967942058399,342.7148264128802)" opacity="0.78"></path><path d="M-8 37H42C70 37 92 59 92 87H42C14 87 -8 65 -8 37Z " transform="matrix(-0.38254955963579196,-0.13172237683440474,0.13172237683440474,-0.38254955963579196,49.90029414097017,91.2504125244641)" opacity="0.62"></path><path d="M707 298H757C785 298 807 320 807 348H757C729 348 707 326 707 298Z " transform="matrix(-0.308771382503507,0.13747387669293565,-0.13747387669293565,-0.308771382503507,1035.1439987269732,318.66543189208045)" filter="url(#llleaves-blur-2)" opacity="0.52"></path><path d="M-10 542H40C68 542 90 564 90 592H40C12 592 -10 570 -10 542Z " transform="matrix(-0.383139622234286,-0.1171375377995018,0.1171375377995018,-0.383139622234286,-11.09139904294608,788.9256673188203)" opacity="0.61"></path><path d="M-4 260H46C74 260 96 282 96 310H46C18 310 -4 288 -4 260Z " transform="matrix(-0.383139622234286,-0.1171375377995018,0.1171375377995018,-0.383139622234286,30.24022434991914,399.58311907554867)" opacity="0.61"></path><path d="M293 274H343C371 274 393 296 393 324H343C315 324 293 302 293 274Z " transform="matrix(0.0362114489602854,-0.5178478462530003,0.5178478462530003,0.0362114489602854,175.74296697697503,465.79458802565375)" opacity="0.80"></path><path d="M265 187H315C343 187 365 209 365 237H315C287 237 265 215 265 187Z " transform="matrix(0.054543390340379055,-0.5189456942672924,0.5189456942672924,0.054543390340379055,187.80234485811462,363.9046949420367)" opacity="0.80"></path><path d="M613 150H663C691 150 713 172 713 200H663C635 200 613 178 613 150Z " transform="matrix(-0.3660328571720093,0.03202372548055469,-0.03202372548055469,-0.3660328571720093,911.2839362641392,217.82402001149387)" filter="url(#llleaves-blur-2)" opacity="0.56"></path><path d="M616 729H666C694 729 716 751 716 779H666C638 779 616 757 616 729Z " transform="matrix(-0.3563318051920309,0.05643741353517155,-0.05643741353517155,-0.3563318051920309,945.8707920634121,985.0868637003671)" filter="url(#llleaves-blur-2)" opacity="0.55"></path><path d="M503 296H553C581 296 603 318 603 346H553C525 346 503 324 503 296Z " transform="matrix(-0.3732948187415886,-0.18206804824305886,0.18206804824305886,-0.3732948187415886,700.9881912780766,541.5112674944614)" opacity="0.64"></path><path d="M182 391H232C260 391 282 413 282 441H232C204 441 182 419 182 391Z " transform="matrix(-0.026615151885145415,-0.5078473510851023,0.5078473510851023,-0.026615151885145415,26.91021718595121,544.8924886359642)" opacity="0.78"></path><path d="M707 705H757C785 705 807 727 807 755H757C729 755 707 733 707 705Z " transform="matrix(-0.308771382503507,0.13747387669293565,-0.13747387669293565,-0.308771382503507,1091.0958665409978,851.3353845710078)" filter="url(#llleaves-blur-2)" opacity="0.52"></path><path d="M88 347H138C166 347 188 369 188 397H138C110 397 88 375 88 347Z " transform="matrix(-0.2205760254472769,-0.4148431686795997,0.4148431686795997,-0.2205760254472769,14.11783276291311,511.30263874417176)" opacity="0.72"></path><path d="M396 280H446C474 280 496 302 496 330H446C418 330 396 308 396 280Z " transform="matrix(-0.14993876432956524,-0.4614640665615028,0.4614640665615028,-0.14993876432956524,372.12614858972773,556.5442968069476)" opacity="0.75"></path><path d="M7 639H57C85 639 107 661 107 689H57C29 689 7 667 7 639Z " transform="matrix(-0.3745048175998166,-0.17463446446273528,0.17463446446273528,-0.3745048175998166,-37.610509800066694,922.6253633606541)" opacity="0.63"></path><path d="M605 489H655C683 489 705 511 705 539H655C627 539 605 517 605 489Z " transform="matrix(-0.3563318051920309,0.05643741353517155,-0.05643741353517155,-0.3563318051920309,917.4061629578584,660.1880420031665)" filter="url(#llleaves-blur-2)" opacity="0.55"></path><path d="M167 22H217C245 22 267 44 267 72H217C189 72 167 50 167 22Z " transform="matrix(0.11050091683778457,-0.519865940480018,0.519865940480018,0.11050091683778457,168.5876018436399,154.61736599278802)" opacity="0.82"></path><path d="M318 102H368C396 102 418 124 418 152H368C340 152 318 130 318 102Z " transform="matrix(0.10108987556199461,-0.5200623252964,0.5200623252964,0.10108987556199461,264.7510104805432,305.54452151270186)" opacity="0.81"></path><path d="M502 734H552C580 734 602 756 602 784H552C524 784 502 762 502 734Z " transform="matrix(-0.3732948187415886,-0.18206804824305886,0.18206804824305886,-0.3732948187415886,619.8690913288752,1142.8323300550342)" opacity="0.64"></path><path d="M532 105H582C610 105 632 127 632 155H582C554 155 532 133 532 105Z " transform="matrix(-0.35982716871117343,-0.2248449697119191,0.2248449697119191,-0.35982716871117343,762.1895661273535,307.6373043047894)" opacity="0.65"></path><path d="M260 569H310C338 569 360 591 360 619H310C282 619 260 597 260 569Z " transform="matrix(0.054543390340379055,-0.5189456942672924,0.5189456942672924,0.054543390340379055,-15.162193400289198,722.4743913606754)" opacity="0.80"></path></g></svg>