<svg xmlns="http://www.w3.org/2000/svg" version="1.1" xmlns:xlink="http://www.w3.org/1999/xlink" xmlns:svgjs="http://svgjs.dev/svgjs" viewBox="0 0 2400 800" opacity="1"><g fill="#ea047e" transform="matrix(1,0,0,1,-10.4755859375,304.5228729248047)"><path d="M-10,10C242.08333333333331,27.708333333333332,697.9166666666666,101.25,1200,95C1702.0833333333335,88.75,2097.9166666666665,-83.54166666666667,2400,-20C2702.0833333333335,43.54166666666667,3254.1666666666665,208.33333333333331,2650,400C2045.8333333333335,591.6666666666667,156.25,795.8333333333334,-500,900" transform="matrix(1,0,0,1,0,25)" opacity="0.05"></path><path d="M-10,10C242.08333333333331,27.708333333333332,697.9166666666666,101.25,1200,95C1702.0833333333335,88.75,2097.9166666666665,-83.54166666666667,2400,-20C2702.0833333333335,43.54166666666667,3254.1666666666665,208.33333333333331,2650,400C2045.8333333333335,591.6666666666667,156.25,795.8333333333334,-500,900" transform="matrix(1,0,0,1,0,50)" opacity="0.37"></path><path d="M-10,10C242.08333333333331,27.708333333333332,697.9166666666666,101.25,1200,95C1702.0833333333335,88.75,2097.9166666666665,-83.54166666666667,2400,-20C2702.0833333333335,43.54166666666667,3254.1666666666665,208.33333333333331,2650,400C2045.8333333333335,591.6666666666667,156.25,795.8333333333334,-500,900" transform="matrix(1,0,0,1,0,75)" opacity="0.68"></path><path d="M-10,10C242.08333333333331,27.708333333333332,697.9166666666666,101.25,1200,95C1702.0833333333335,88.75,2097.9166666666665,-83.54166666666667,2400,-20C2702.0833333333335,43.54166666666667,3254.1666666666665,208.33333333333331,2650,400C2045.8333333333335,591.6666666666667,156.25,795.8333333333334,-500,900" transform="matrix(1,0,0,1,0,100)" opacity="1.00"></path></g></svg>